<?xml version="1.0" encoding="UTF-8" standalone="no"?>
<!DOCTYPE svg PUBLIC "-//W3C//DTD SVG 1.0//EN" "http://www.w3.org/TR/2001/REC-SVG-20010904/DTD/svg10.dtd">

<svg xmlns="http://www.w3.org/2000/svg" xmlns:xlink="http://www.w3.org/1999/xlink" width="21.17cm" height="19.18cm" viewBox="0 0 800 725">
<title></title>
<desc>Created with Enterprise Architect (Build: 1629) 2</desc>

<g style="fill:#FFFFFF;fill-opacity:1.00;">
	 <rect x="0" y="0" width="800" height="725" shape-rendering="auto"/>
</g><g style="stroke-width:1;stroke-linecap:square;stroke-linejoin:miter; fill:#000000;fill-opacity:0.00; stroke:#000000; stroke-opacity:1.00">
  <path d="M 6 6 L 6 719 L 794 719 L 794 6 L 6 6" shape-rendering="auto"/>
</g>
<g style="stroke-width:1;stroke-linecap:square;stroke-linejoin:miter; fill:#FFFFFF;fill-opacity:1.00; stroke:#000000; stroke-opacity:1.00">
  <polygon points="6 26 319 26 332 12 332 6 6 6 6 26" shape-rendering="auto"   style="fill-rule:evenodd;"/>
</g>
<g style="stroke-width:1;stroke-linecap:square;stroke-linejoin:miter; fill:#000000;fill-opacity:1.00; stroke:#000000; stroke-opacity:0.00">
	<text x="11.00" y="19.00" textLength="306" style="font-family:Calibri; font-weight:700; font-style:normal; font-size:10px; fill:#000000;fill-opacity:1.00; stroke:#000000; stroke-opacity:0.00 stroke-width:0; white-space: pre;" xml:space="preserve" transform="rotate(-0.00 11.00 19.00)">Business Process UC4 Direct Flexible Connection Agreement activation event</text>
</g>
<g style="stroke-width:1;stroke-linecap:square;stroke-linejoin:miter; fill:#FFFFFF;fill-opacity:1.00; stroke:#000000; stroke-opacity:0.00">
 <rect x="35" y="39" width="704" height="250" rx="2.00" shape-rendering="auto"  />
</g>
<g style="stroke-width:1;stroke-linecap:round;stroke-linejoin:bevel; fill:#000000;fill-opacity:0.00; stroke:#000000; stroke-opacity:1.00">
 <rect x="35" y="39" width="704" height="250" rx="2.00" shape-rendering="auto"  />
  <path d="M 55 39 L 55 289" shape-rendering="auto"/>
</g>
<g style="stroke-width:1;stroke-linecap:round;stroke-linejoin:bevel; fill:#000000;fill-opacity:1.00; stroke:#000000; stroke-opacity:0.00">
	<text x="48.00" y="237.00" textLength="145" style="font-family:Calibri; font-weight:700; font-style:normal; font-size:10px; fill:#000000;fill-opacity:1.00; stroke:#000000; stroke-opacity:0.00 stroke-width:0; white-space: pre;" xml:space="preserve" transform="rotate(-90.00 48.00 237.00)">«Pool» Connecting System Operator</text>
</g>
<g style="stroke-width:1;stroke-linecap:round;stroke-linejoin:bevel; fill:#FFFFFF;fill-opacity:1.00; stroke:#000000; stroke-opacity:0.00">
 <rect x="36" y="334" width="699" height="226" rx="2.00" shape-rendering="auto"  />
</g>
<g style="stroke-width:1;stroke-linecap:round;stroke-linejoin:bevel; fill:#000000;fill-opacity:0.00; stroke:#000000; stroke-opacity:1.00">
 <rect x="36" y="334" width="699" height="226" rx="2.00" shape-rendering="auto"  />
  <path d="M 56 334 L 56 560" shape-rendering="auto"/>
</g>
<g style="stroke-width:1;stroke-linecap:round;stroke-linejoin:bevel; fill:#000000;fill-opacity:1.00; stroke:#000000; stroke-opacity:0.00">
	<text x="49.00" y="490.00" textLength="86" style="font-family:Calibri; font-weight:700; font-style:normal; font-size:10px; fill:#000000;fill-opacity:1.00; stroke:#000000; stroke-opacity:0.00 stroke-width:0; white-space: pre;" xml:space="preserve" transform="rotate(-90.00 49.00 490.00)">«Pool» DER Operator</text>
</g>
<g style="stroke-width:1;stroke-linecap:round;stroke-linejoin:bevel; fill:#FFFFFF;fill-opacity:1.00; stroke:#000000; stroke-opacity:0.00">
 <rect x="36" y="599" width="698" height="93" rx="2.00" shape-rendering="auto"  />
</g>
<g style="stroke-width:1;stroke-linecap:round;stroke-linejoin:bevel; fill:#000000;fill-opacity:0.00; stroke:#000000; stroke-opacity:1.00">
 <rect x="36" y="599" width="698" height="93" rx="2.00" shape-rendering="auto"  />
  <path d="M 67 599 L 67 692" shape-rendering="auto"/>
</g>
<g style="stroke-width:1;stroke-linecap:round;stroke-linejoin:bevel; fill:#000000;fill-opacity:1.00; stroke:#000000; stroke-opacity:0.00">
	<text x="49.00" y="670.00" textLength="48" style="font-family:Calibri; font-weight:700; font-style:normal; font-size:10px; fill:#000000;fill-opacity:1.00; stroke:#000000; stroke-opacity:0.00 stroke-width:0; white-space: pre;" xml:space="preserve" transform="rotate(-90.00 49.00 670.00)">«Pool» Final</text>
	<text x="62.00" y="665.00" textLength="39" style="font-family:Calibri; font-weight:700; font-style:normal; font-size:10px; fill:#000000;fill-opacity:1.00; stroke:#000000; stroke-opacity:0.00 stroke-width:0; white-space: pre;" xml:space="preserve" transform="rotate(-90.00 62.00 665.00)">Customer</text>
</g>
<g style="stroke-width:1;stroke-linecap:round;stroke-linejoin:bevel; fill:#FCC5C2;fill-opacity:1.00; stroke:#000000; stroke-opacity:1.00">
<ellipse cx="81.00" cy="94.00" rx="15.00" ry="15.00" shape-rendering="auto"  />
<ellipse cx="81.00" cy="94.00" rx="8.00" ry="8.00" shape-rendering="auto"  />
</g>
<g style="stroke-width:1;stroke-linecap:round;stroke-linejoin:bevel; fill:#000000;fill-opacity:0.00; stroke:#000000; stroke-opacity:1.00">
  <path d="M 81 86 L 81 94" shape-rendering="auto"/>
  <path d="M 81 94 L 89 94" shape-rendering="auto"/>
</g>
<g style="stroke-width:1;stroke-linecap:round;stroke-linejoin:bevel; fill:#FBF7DB;fill-opacity:1.00; stroke:#000000; stroke-opacity:1.00">
 <rect x="123" y="56" width="110" height="60" rx="5.00" shape-rendering="auto"  />
</g>
<g style="stroke-width:1;stroke-linecap:round;stroke-linejoin:bevel; fill:#000000;fill-opacity:1.00; stroke:#000000; stroke-opacity:0.00">
	<text x="131.00" y="88.00" textLength="101" style="font-family:Calibri; font-weight:0; font-style:normal; font-size:10px; fill:#000000;fill-opacity:1.00; stroke:#000000; stroke-opacity:0.00 stroke-width:0; white-space: pre;" xml:space="preserve" transform="rotate(-0.00 131.00 88.00)">4.1 Calculate thermal and</text>
	<text x="136.00" y="101.00" textLength="84" style="font-family:Calibri; font-weight:0; font-style:normal; font-size:10px; fill:#000000;fill-opacity:1.00; stroke:#000000; stroke-opacity:0.00 stroke-width:0; white-space: pre;" xml:space="preserve" transform="rotate(-0.00 136.00 101.00)">voltage overload and</text>
	<text x="147.00" y="114.00" textLength="61" style="font-family:Calibri; font-weight:0; font-style:normal; font-size:10px; fill:#000000;fill-opacity:1.00; stroke:#000000; stroke-opacity:0.00 stroke-width:0; white-space: pre;" xml:space="preserve" transform="rotate(-0.00 147.00 114.00)">remedial action</text>
</g>
<g style="stroke-width:1;stroke-linecap:round;stroke-linejoin:bevel; fill:#000000;fill-opacity:0.00; stroke:#000000; stroke-opacity:1.00">
  <path d="M 145 73 L 149 73" shape-rendering="auto"/>
  <path d="M 149 73 L 149 71" shape-rendering="auto"/>
  <path d="M 149 71 L 145 71" shape-rendering="auto"/>
  <path d="M 144 71 L 144 71 A 6.00 6.00 27.35 1 0 144 68" shape-rendering="auto"/>
  <path d="M 144 69 L 147 66" shape-rendering="auto"/>
  <path d="M 147 66 L 145 65" shape-rendering="auto"/>
  <path d="M 145 65 L 143 67" shape-rendering="auto"/>
  <path d="M 142 67 L 142 67 A 6.00 6.00 21.50 1 0 140 66" shape-rendering="auto"/>
  <path d="M 140 66" shape-rendering="auto"/>
  <path d="M 140 66 L 140 62" shape-rendering="auto"/>
  <path d="M 140 62 L 138 62" shape-rendering="auto"/>
  <path d="M 138 62 L 138 66" shape-rendering="auto"/>
  <path d="M 138 66 L 138 66 A 6.00 6.00 29.20 1 0 135 67" shape-rendering="auto"/>
  <path d="M 136 67 L 133 65" shape-rendering="auto"/>
  <path d="M 133 65 L 131 66" shape-rendering="auto"/>
  <path d="M 131 66 L 134 69" shape-rendering="auto"/>
  <path d="M 134 69 L 134 69 A 6.00 6.00 21.50 0 0 133 71" shape-rendering="auto"/>
  <path d="M 133 71 L 129 71" shape-rendering="auto"/>
  <path d="M 129 71 L 129 73" shape-rendering="auto"/>
  <path d="M 129 73 L 133 73" shape-rendering="auto"/>
  <path d="M 133 73 L 133 73 A 6.00 6.00 21.50 0 0 134 75" shape-rendering="auto"/>
  <path d="M 134 76 L 131 79" shape-rendering="auto"/>
  <path d="M 131 79 L 133 80" shape-rendering="auto"/>
  <path d="M 133 80 L 136 77" shape-rendering="auto"/>
  <path d="M 135 77 L 135 77 A 6.00 6.00 29.20 0 0 138 78" shape-rendering="auto"/>
  <path d="M 138 78 L 138 82" shape-rendering="auto"/>
  <path d="M 138 82 L 140 82" shape-rendering="auto"/>
  <path d="M 140 82 L 140 78" shape-rendering="auto"/>
  <path d="M 140 78 L 140 78 A 6.00 6.00 21.50 0 0 142 77" shape-rendering="auto"/>
  <path d="M 142 77 L 145 80" shape-rendering="auto"/>
  <path d="M 145 80 L 147 79" shape-rendering="auto"/>
  <path d="M 147 79 L 144 76" shape-rendering="auto"/>
  <path d="M 144 75 L 144 75 A 6.00 6.00 19.65 0 0 144 73" shape-rendering="auto"/>
  <path d="M 142 73 L 144 73" shape-rendering="auto"/>
  <path d="M 144 73 L 144 72" shape-rendering="auto"/>
  <path d="M 144 72 L 142 72" shape-rendering="auto"/>
  <path d="M 141 71 L 141 71 A 3.00 3.00 18.43 1 0 141 70" shape-rendering="auto"/>
  <path d="M 141 70 L 143 69" shape-rendering="auto"/>
  <path d="M 143 69 L 142 68" shape-rendering="auto"/>
  <path d="M 142 68 L 140 70" shape-rendering="auto"/>
  <path d="M 140 69 L 140 69 A 3.00 3.00 18.43 1 0 139 69" shape-rendering="auto"/>
  <path d="M 139 69" shape-rendering="auto"/>
  <path d="M 139 69 L 139 67" shape-rendering="auto"/>
  <path d="M 139 67 L 138 67" shape-rendering="auto"/>
  <path d="M 138 67 L 138 69" shape-rendering="auto"/>
  <path d="M 138 69 L 138 69 A 3.00 3.00 26.57 1 0 136 69" shape-rendering="auto"/>
  <path d="M 137 70 L 136 68" shape-rendering="auto"/>
  <path d="M 136 68 L 135 69" shape-rendering="auto"/>
  <path d="M 135 69 L 136 71" shape-rendering="auto"/>
  <path d="M 136 70 L 136 70 A 3.00 3.00 19.65 0 0 135 71" shape-rendering="auto"/>
  <path d="M 136 72 L 134 72" shape-rendering="auto"/>
  <path d="M 134 72 L 134 73" shape-rendering="auto"/>
  <path d="M 134 73 L 136 73" shape-rendering="auto"/>
  <path d="M 135 72 L 135 72 A 3.00 3.00 18.43 0 0 136 73" shape-rendering="auto"/>
  <path d="M 136 74 L 135 75" shape-rendering="auto"/>
  <path d="M 135 75 L 136 76" shape-rendering="auto"/>
  <path d="M 136 76 L 137 75" shape-rendering="auto"/>
  <path d="M 136 74 L 136 74 A 3.00 3.00 37.87 0 0 138 75" shape-rendering="auto"/>
  <path d="M 138 75 L 138 77" shape-rendering="auto"/>
  <path d="M 138 77 L 139 77" shape-rendering="auto"/>
  <path d="M 139 77 L 139 75" shape-rendering="auto"/>
  <path d="M 139 75 L 139 75 A 3.00 3.00 26.57 0 0 140 74" shape-rendering="auto"/>
  <path d="M 140 75 L 142 76" shape-rendering="auto"/>
  <path d="M 142 76 L 143 75" shape-rendering="auto"/>
  <path d="M 143 75 L 141 74" shape-rendering="auto"/>
  <path d="M 141 73 L 141 73 A 3.00 3.00 26.57 0 0 141 72" shape-rendering="auto"/>
  <path d="M 139 64 L 142 61" shape-rendering="auto"/>
  <path d="M 142 61 L 140 59" shape-rendering="auto"/>
  <path d="M 140 59 L 138 62" shape-rendering="auto"/>
  <path d="M 139 66 L 139 66 A 6.00 6.00 27.35 1 0 139 63" shape-rendering="auto"/>
  <path d="M 137 62 L 137 62 A 6.00 6.00 21.50 1 0 135 61" shape-rendering="auto"/>
  <path d="M 135 61" shape-rendering="auto"/>
  <path d="M 135 61 L 135 57" shape-rendering="auto"/>
  <path d="M 135 57 L 133 57" shape-rendering="auto"/>
  <path d="M 133 57 L 133 61" shape-rendering="auto"/>
  <path d="M 133 61 L 133 61 A 6.00 6.00 29.20 1 0 130 62" shape-rendering="auto"/>
  <path d="M 131 62 L 128 59" shape-rendering="auto"/>
  <path d="M 128 59 L 126 61" shape-rendering="auto"/>
  <path d="M 126 61 L 129 64" shape-rendering="auto"/>
  <path d="M 129 63 L 129 63 A 6.00 6.00 29.20 0 0 128 66" shape-rendering="auto"/>
  <path d="M 128 66 L 124 66" shape-rendering="auto"/>
  <path d="M 124 66 L 124 68" shape-rendering="auto"/>
  <path d="M 124 68 L 128 68" shape-rendering="auto"/>
  <path d="M 128 68 L 128 68 A 6.00 6.00 21.50 0 0 129 70" shape-rendering="auto"/>
  <path d="M 129 71 L 126 74" shape-rendering="auto"/>
  <path d="M 126 74 L 128 75" shape-rendering="auto"/>
  <path d="M 128 75 L 129 74" shape-rendering="auto"/>
</g>
<g style="stroke-width:1;stroke-linecap:round;stroke-linejoin:bevel; fill:#FBF7DB;fill-opacity:1.00; stroke:#000000; stroke-opacity:1.00">
 <rect x="123" y="148" width="110" height="88" rx="5.00" shape-rendering="auto"  />
</g>
<g style="stroke-width:1;stroke-linecap:round;stroke-linejoin:bevel; fill:#000000;fill-opacity:1.00; stroke:#000000; stroke-opacity:0.00">
	<text x="143.00" y="180.00" textLength="69" style="font-family:Calibri; font-weight:0; font-style:normal; font-size:10px; fill:#000000;fill-opacity:1.00; stroke:#000000; stroke-opacity:0.00 stroke-width:0; white-space: pre;" xml:space="preserve" transform="rotate(-0.00 143.00 180.00)">4.2 Calculate Grid</text>
	<text x="142.00" y="193.00" textLength="71" style="font-family:Calibri; font-weight:0; font-style:normal; font-size:10px; fill:#000000;fill-opacity:1.00; stroke:#000000; stroke-opacity:0.00 stroke-width:0; white-space: pre;" xml:space="preserve" transform="rotate(-0.00 142.00 193.00)">technical limit and</text>
	<text x="131.00" y="206.00" textLength="98" style="font-family:Calibri; font-weight:0; font-style:normal; font-size:10px; fill:#000000;fill-opacity:1.00; stroke:#000000; stroke-opacity:0.00 stroke-width:0; white-space: pre;" xml:space="preserve" transform="rotate(-0.00 131.00 206.00)">remedial actions through</text>
	<text x="140.00" y="219.00" textLength="76" style="font-family:Calibri; font-weight:0; font-style:normal; font-size:10px; fill:#000000;fill-opacity:1.00; stroke:#000000; stroke-opacity:0.00 stroke-width:0; white-space: pre;" xml:space="preserve" transform="rotate(-0.00 140.00 219.00)">Flexible Connection</text>
	<text x="155.00" y="232.00" textLength="45" style="font-family:Calibri; font-weight:0; font-style:normal; font-size:10px; fill:#000000;fill-opacity:1.00; stroke:#000000; stroke-opacity:0.00 stroke-width:0; white-space: pre;" xml:space="preserve" transform="rotate(-0.00 155.00 232.00)">Agreement</text>
</g>
<g style="stroke-width:1;stroke-linecap:round;stroke-linejoin:bevel; fill:#000000;fill-opacity:0.00; stroke:#000000; stroke-opacity:1.00">
  <path d="M 145 165 L 149 165" shape-rendering="auto"/>
  <path d="M 149 165 L 149 163" shape-rendering="auto"/>
  <path d="M 149 163 L 145 163" shape-rendering="auto"/>
  <path d="M 144 163 L 144 163 A 6.00 6.00 27.35 1 0 144 160" shape-rendering="auto"/>
  <path d="M 144 161 L 147 158" shape-rendering="auto"/>
  <path d="M 147 158 L 145 157" shape-rendering="auto"/>
  <path d="M 145 157 L 143 159" shape-rendering="auto"/>
  <path d="M 142 159 L 142 159 A 6.00 6.00 21.50 1 0 140 158" shape-rendering="auto"/>
  <path d="M 140 158" shape-rendering="auto"/>
  <path d="M 140 158 L 140 154" shape-rendering="auto"/>
  <path d="M 140 154 L 138 154" shape-rendering="auto"/>
  <path d="M 138 154 L 138 158" shape-rendering="auto"/>
  <path d="M 138 158 L 138 158 A 6.00 6.00 29.20 1 0 135 159" shape-rendering="auto"/>
  <path d="M 136 159 L 133 157" shape-rendering="auto"/>
  <path d="M 133 157 L 131 158" shape-rendering="auto"/>
  <path d="M 131 158 L 134 161" shape-rendering="auto"/>
  <path d="M 134 161 L 134 161 A 6.00 6.00 21.50 0 0 133 163" shape-rendering="auto"/>
  <path d="M 133 163 L 129 163" shape-rendering="auto"/>
  <path d="M 129 163 L 129 165" shape-rendering="auto"/>
  <path d="M 129 165 L 133 165" shape-rendering="auto"/>
  <path d="M 133 165 L 133 165 A 6.00 6.00 21.50 0 0 134 167" shape-rendering="auto"/>
  <path d="M 134 168 L 131 171" shape-rendering="auto"/>
  <path d="M 131 171 L 133 172" shape-rendering="auto"/>
  <path d="M 133 172 L 136 169" shape-rendering="auto"/>
  <path d="M 135 169 L 135 169 A 6.00 6.00 29.20 0 0 138 170" shape-rendering="auto"/>
  <path d="M 138 170 L 138 174" shape-rendering="auto"/>
  <path d="M 138 174 L 140 174" shape-rendering="auto"/>
  <path d="M 140 174 L 140 170" shape-rendering="auto"/>
  <path d="M 140 170 L 140 170 A 6.00 6.00 21.50 0 0 142 169" shape-rendering="auto"/>
  <path d="M 142 169 L 145 172" shape-rendering="auto"/>
  <path d="M 145 172 L 147 171" shape-rendering="auto"/>
  <path d="M 147 171 L 144 168" shape-rendering="auto"/>
  <path d="M 144 167 L 144 167 A 6.00 6.00 19.65 0 0 144 165" shape-rendering="auto"/>
  <path d="M 142 165 L 144 165" shape-rendering="auto"/>
  <path d="M 144 165 L 144 164" shape-rendering="auto"/>
  <path d="M 144 164 L 142 164" shape-rendering="auto"/>
  <path d="M 141 163 L 141 163 A 3.00 3.00 18.43 1 0 141 162" shape-rendering="auto"/>
  <path d="M 141 162 L 143 161" shape-rendering="auto"/>
  <path d="M 143 161 L 142 160" shape-rendering="auto"/>
  <path d="M 142 160 L 140 162" shape-rendering="auto"/>
  <path d="M 140 161 L 140 161 A 3.00 3.00 18.43 1 0 139 161" shape-rendering="auto"/>
  <path d="M 139 161" shape-rendering="auto"/>
  <path d="M 139 161 L 139 159" shape-rendering="auto"/>
  <path d="M 139 159 L 138 159" shape-rendering="auto"/>
  <path d="M 138 159 L 138 161" shape-rendering="auto"/>
  <path d="M 138 161 L 138 161 A 3.00 3.00 26.57 1 0 136 161" shape-rendering="auto"/>
  <path d="M 137 162 L 136 160" shape-rendering="auto"/>
  <path d="M 136 160 L 135 161" shape-rendering="auto"/>
  <path d="M 135 161 L 136 163" shape-rendering="auto"/>
  <path d="M 136 162 L 136 162 A 3.00 3.00 19.65 0 0 135 163" shape-rendering="auto"/>
  <path d="M 136 164 L 134 164" shape-rendering="auto"/>
  <path d="M 134 164 L 134 165" shape-rendering="auto"/>
  <path d="M 134 165 L 136 165" shape-rendering="auto"/>
  <path d="M 135 164 L 135 164 A 3.00 3.00 18.43 0 0 136 165" shape-rendering="auto"/>
  <path d="M 136 166 L 135 167" shape-rendering="auto"/>
  <path d="M 135 167 L 136 168" shape-rendering="auto"/>
  <path d="M 136 168 L 137 167" shape-rendering="auto"/>
  <path d="M 136 166 L 136 166 A 3.00 3.00 37.87 0 0 138 167" shape-rendering="auto"/>
  <path d="M 138 167 L 138 169" shape-rendering="auto"/>
  <path d="M 138 169 L 139 169" shape-rendering="auto"/>
  <path d="M 139 169 L 139 167" shape-rendering="auto"/>
  <path d="M 139 167 L 139 167 A 3.00 3.00 26.57 0 0 140 166" shape-rendering="auto"/>
  <path d="M 140 167 L 142 168" shape-rendering="auto"/>
  <path d="M 142 168 L 143 167" shape-rendering="auto"/>
  <path d="M 143 167 L 141 166" shape-rendering="auto"/>
  <path d="M 141 165 L 141 165 A 3.00 3.00 26.57 0 0 141 164" shape-rendering="auto"/>
  <path d="M 139 156 L 142 153" shape-rendering="auto"/>
  <path d="M 142 153 L 140 151" shape-rendering="auto"/>
  <path d="M 140 151 L 138 154" shape-rendering="auto"/>
  <path d="M 139 158 L 139 158 A 6.00 6.00 27.35 1 0 139 155" shape-rendering="auto"/>
  <path d="M 137 154 L 137 154 A 6.00 6.00 21.50 1 0 135 153" shape-rendering="auto"/>
  <path d="M 135 153" shape-rendering="auto"/>
  <path d="M 135 153 L 135 149" shape-rendering="auto"/>
  <path d="M 135 149 L 133 149" shape-rendering="auto"/>
  <path d="M 133 149 L 133 153" shape-rendering="auto"/>
  <path d="M 133 153 L 133 153 A 6.00 6.00 29.20 1 0 130 154" shape-rendering="auto"/>
  <path d="M 131 154 L 128 151" shape-rendering="auto"/>
  <path d="M 128 151 L 126 153" shape-rendering="auto"/>
  <path d="M 126 153 L 129 156" shape-rendering="auto"/>
  <path d="M 129 155 L 129 155 A 6.00 6.00 29.20 0 0 128 158" shape-rendering="auto"/>
  <path d="M 128 158 L 124 158" shape-rendering="auto"/>
  <path d="M 124 158 L 124 160" shape-rendering="auto"/>
  <path d="M 124 160 L 128 160" shape-rendering="auto"/>
  <path d="M 128 160 L 128 160 A 6.00 6.00 21.50 0 0 129 162" shape-rendering="auto"/>
  <path d="M 129 163 L 126 166" shape-rendering="auto"/>
  <path d="M 126 166 L 128 167" shape-rendering="auto"/>
  <path d="M 128 167 L 129 166" shape-rendering="auto"/>
</g>
<g style="stroke-width:1;stroke-linecap:round;stroke-linejoin:bevel; fill:#FBF7DB;fill-opacity:1.00; stroke:#000000; stroke-opacity:1.00">
 <rect x="268" y="221" width="110" height="60" rx="5.00" shape-rendering="auto"  />
</g>
<g style="stroke-width:1;stroke-linecap:round;stroke-linejoin:bevel; fill:#000000;fill-opacity:1.00; stroke:#000000; stroke-opacity:0.00">
	<text x="283.00" y="253.00" textLength="80" style="font-family:Calibri; font-weight:0; font-style:normal; font-size:10px; fill:#000000;fill-opacity:1.00; stroke:#000000; stroke-opacity:0.00 stroke-width:0; white-space: pre;" xml:space="preserve" transform="rotate(-0.00 283.00 253.00)">4.4 Send connection</text>
	<text x="284.00" y="266.00" textLength="78" style="font-family:Calibri; font-weight:0; font-style:normal; font-size:10px; fill:#000000;fill-opacity:1.00; stroke:#000000; stroke-opacity:0.00 stroke-width:0; white-space: pre;" xml:space="preserve" transform="rotate(-0.00 284.00 266.00)">power envelop limit</text>
</g>
<g style="stroke-width:1;stroke-linecap:round;stroke-linejoin:bevel; fill:#000000;fill-opacity:1.00; stroke:#FBF7DB; stroke-opacity:1.00">
  <path d="M 270 223 L 286 223 L 286 237 L 270 237 L 270 223 Z" shape-rendering="auto"/>
</g>
<g style="stroke-width:2;stroke-linecap:round;stroke-linejoin:bevel; fill:#000000;fill-opacity:0.00; stroke:#FBF7DB; stroke-opacity:1.00">
  <path d="M 270 223 L 278 231" shape-rendering="auto"/>
  <path d="M 278 231 L 286 223" shape-rendering="auto"/>
</g>
<g style="stroke-width:1;stroke-linecap:round;stroke-linejoin:bevel; fill:#FBF7DB;fill-opacity:1.00; stroke:#000000; stroke-opacity:1.00">
 <rect x="269" y="358" width="110" height="60" rx="5.00" shape-rendering="auto"  />
</g>
<g style="stroke-width:1;stroke-linecap:round;stroke-linejoin:bevel; fill:#000000;fill-opacity:1.00; stroke:#000000; stroke-opacity:0.00">
	<text x="278.00" y="390.00" textLength="91" style="font-family:Calibri; font-weight:0; font-style:normal; font-size:10px; fill:#000000;fill-opacity:1.00; stroke:#000000; stroke-opacity:0.00 stroke-width:0; white-space: pre;" xml:space="preserve" transform="rotate(-0.00 278.00 390.00)">4.4 Receive connection</text>
	<text x="285.00" y="403.00" textLength="78" style="font-family:Calibri; font-weight:0; font-style:normal; font-size:10px; fill:#000000;fill-opacity:1.00; stroke:#000000; stroke-opacity:0.00 stroke-width:0; white-space: pre;" xml:space="preserve" transform="rotate(-0.00 285.00 403.00)">power envelop limit</text>
</g>
<g style="stroke-width:1;stroke-linecap:round;stroke-linejoin:bevel; fill:#FBF7DB;fill-opacity:1.00; stroke:#000000; stroke-opacity:1.00">
  <path d="M 271 360 L 287 360 L 287 374 L 271 374 L 271 360 Z" shape-rendering="auto"/>
</g>
<g style="stroke-width:1;stroke-linecap:round;stroke-linejoin:bevel; fill:#000000;fill-opacity:0.00; stroke:#000000; stroke-opacity:1.00">
  <path d="M 271 360 L 279 368" shape-rendering="auto"/>
  <path d="M 279 368 L 287 360" shape-rendering="auto"/>
</g>
<g style="stroke-width:1;stroke-linecap:round;stroke-linejoin:bevel; fill:#FBF7DB;fill-opacity:1.00; stroke:#000000; stroke-opacity:1.00">
 <rect x="587" y="458" width="110" height="60" rx="5.00" shape-rendering="auto"  />
</g>
<g style="stroke-width:1;stroke-linecap:round;stroke-linejoin:bevel; fill:#000000;fill-opacity:1.00; stroke:#000000; stroke-opacity:0.00">
	<text x="595.00" y="490.00" textLength="100" style="font-family:Calibri; font-weight:0; font-style:normal; font-size:10px; fill:#000000;fill-opacity:1.00; stroke:#000000; stroke-opacity:0.00 stroke-width:0; white-space: pre;" xml:space="preserve" transform="rotate(-0.00 595.00 490.00)">4.7 Notify on reception of</text>
	<text x="601.00" y="503.00" textLength="81" style="font-family:Calibri; font-weight:0; font-style:normal; font-size:10px; fill:#000000;fill-opacity:1.00; stroke:#000000; stroke-opacity:0.00 stroke-width:0; white-space: pre;" xml:space="preserve" transform="rotate(-0.00 601.00 503.00)">new connection limit</text>
	<text x="617.00" y="516.00" textLength="50" style="font-family:Calibri; font-weight:0; font-style:normal; font-size:10px; fill:#000000;fill-opacity:1.00; stroke:#000000; stroke-opacity:0.00 stroke-width:0; white-space: pre;" xml:space="preserve" transform="rotate(-0.00 617.00 516.00)">confirmation</text>
</g>
<g style="stroke-width:1;stroke-linecap:round;stroke-linejoin:bevel; fill:#000000;fill-opacity:1.00; stroke:#FBF7DB; stroke-opacity:1.00">
  <path d="M 589 460 L 605 460 L 605 474 L 589 474 L 589 460 Z" shape-rendering="auto"/>
</g>
<g style="stroke-width:2;stroke-linecap:round;stroke-linejoin:bevel; fill:#000000;fill-opacity:0.00; stroke:#FBF7DB; stroke-opacity:1.00">
  <path d="M 589 460 L 597 468" shape-rendering="auto"/>
  <path d="M 597 468 L 605 460" shape-rendering="auto"/>
</g>
<g style="stroke-width:1;stroke-linecap:round;stroke-linejoin:bevel; fill:#FBF7DB;fill-opacity:1.00; stroke:#000000; stroke-opacity:1.00">
 <rect x="411" y="358" width="110" height="72" rx="5.00" shape-rendering="auto"  />
</g>
<g style="stroke-width:1;stroke-linecap:round;stroke-linejoin:bevel; fill:#000000;fill-opacity:1.00; stroke:#000000; stroke-opacity:0.00">
	<text x="419.00" y="390.00" textLength="100" style="font-family:Calibri; font-weight:0; font-style:normal; font-size:10px; fill:#000000;fill-opacity:1.00; stroke:#000000; stroke-opacity:0.00 stroke-width:0; white-space: pre;" xml:space="preserve" transform="rotate(-0.00 419.00 390.00)">4.5 Execute calculation of</text>
	<text x="431.00" y="403.00" textLength="70" style="font-family:Calibri; font-weight:0; font-style:normal; font-size:10px; fill:#000000;fill-opacity:1.00; stroke:#000000; stroke-opacity:0.00 stroke-width:0; white-space: pre;" xml:space="preserve" transform="rotate(-0.00 431.00 403.00)">connection power</text>
	<text x="419.00" y="416.00" textLength="101" style="font-family:Calibri; font-weight:0; font-style:normal; font-size:10px; fill:#000000;fill-opacity:1.00; stroke:#000000; stroke-opacity:0.00 stroke-width:0; white-space: pre;" xml:space="preserve" transform="rotate(-0.00 419.00 416.00)">envelop limit to individual</text>
	<text x="419.00" y="429.00" textLength="94" style="font-family:Calibri; font-weight:0; font-style:normal; font-size:10px; fill:#000000;fill-opacity:1.00; stroke:#000000; stroke-opacity:0.00 stroke-width:0; white-space: pre;" xml:space="preserve" transform="rotate(-0.00 419.00 429.00)">DERs, Controllable Units</text>
</g>
<g style="stroke-width:1;stroke-linecap:round;stroke-linejoin:bevel; fill:#000000;fill-opacity:0.00; stroke:#000000; stroke-opacity:1.00">
  <path d="M 433 375 L 437 375" shape-rendering="auto"/>
  <path d="M 437 375 L 437 373" shape-rendering="auto"/>
  <path d="M 437 373 L 433 373" shape-rendering="auto"/>
  <path d="M 432 373 L 432 373 A 6.00 6.00 27.35 1 0 432 370" shape-rendering="auto"/>
  <path d="M 432 371 L 435 368" shape-rendering="auto"/>
  <path d="M 435 368 L 433 367" shape-rendering="auto"/>
  <path d="M 433 367 L 431 369" shape-rendering="auto"/>
  <path d="M 430 369 L 430 369 A 6.00 6.00 21.50 1 0 428 368" shape-rendering="auto"/>
  <path d="M 428 368" shape-rendering="auto"/>
  <path d="M 428 368 L 428 364" shape-rendering="auto"/>
  <path d="M 428 364 L 426 364" shape-rendering="auto"/>
  <path d="M 426 364 L 426 368" shape-rendering="auto"/>
  <path d="M 426 368 L 426 368 A 6.00 6.00 29.20 1 0 423 369" shape-rendering="auto"/>
  <path d="M 424 369 L 421 367" shape-rendering="auto"/>
  <path d="M 421 367 L 419 368" shape-rendering="auto"/>
  <path d="M 419 368 L 422 371" shape-rendering="auto"/>
  <path d="M 422 371 L 422 371 A 6.00 6.00 21.50 0 0 421 373" shape-rendering="auto"/>
  <path d="M 421 373 L 417 373" shape-rendering="auto"/>
  <path d="M 417 373 L 417 375" shape-rendering="auto"/>
  <path d="M 417 375 L 421 375" shape-rendering="auto"/>
  <path d="M 421 375 L 421 375 A 6.00 6.00 21.50 0 0 422 377" shape-rendering="auto"/>
  <path d="M 422 378 L 419 381" shape-rendering="auto"/>
  <path d="M 419 381 L 421 382" shape-rendering="auto"/>
  <path d="M 421 382 L 424 379" shape-rendering="auto"/>
  <path d="M 423 379 L 423 379 A 6.00 6.00 29.20 0 0 426 380" shape-rendering="auto"/>
  <path d="M 426 380 L 426 384" shape-rendering="auto"/>
  <path d="M 426 384 L 428 384" shape-rendering="auto"/>
  <path d="M 428 384 L 428 380" shape-rendering="auto"/>
  <path d="M 428 380 L 428 380 A 6.00 6.00 21.50 0 0 430 379" shape-rendering="auto"/>
  <path d="M 430 379 L 433 382" shape-rendering="auto"/>
  <path d="M 433 382 L 435 381" shape-rendering="auto"/>
  <path d="M 435 381 L 432 378" shape-rendering="auto"/>
  <path d="M 432 377 L 432 377 A 6.00 6.00 19.65 0 0 432 375" shape-rendering="auto"/>
  <path d="M 430 375 L 432 375" shape-rendering="auto"/>
  <path d="M 432 375 L 432 374" shape-rendering="auto"/>
  <path d="M 432 374 L 430 374" shape-rendering="auto"/>
  <path d="M 429 373 L 429 373 A 3.00 3.00 18.43 1 0 429 372" shape-rendering="auto"/>
  <path d="M 429 372 L 431 371" shape-rendering="auto"/>
  <path d="M 431 371 L 430 370" shape-rendering="auto"/>
  <path d="M 430 370 L 428 372" shape-rendering="auto"/>
  <path d="M 428 371 L 428 371 A 3.00 3.00 18.43 1 0 427 371" shape-rendering="auto"/>
  <path d="M 427 371" shape-rendering="auto"/>
  <path d="M 427 371 L 427 369" shape-rendering="auto"/>
  <path d="M 427 369 L 426 369" shape-rendering="auto"/>
  <path d="M 426 369 L 426 371" shape-rendering="auto"/>
  <path d="M 426 371 L 426 371 A 3.00 3.00 26.57 1 0 424 371" shape-rendering="auto"/>
  <path d="M 425 372 L 424 370" shape-rendering="auto"/>
  <path d="M 424 370 L 423 371" shape-rendering="auto"/>
  <path d="M 423 371 L 424 373" shape-rendering="auto"/>
  <path d="M 424 372 L 424 372 A 3.00 3.00 19.65 0 0 423 373" shape-rendering="auto"/>
  <path d="M 424 374 L 422 374" shape-rendering="auto"/>
  <path d="M 422 374 L 422 375" shape-rendering="auto"/>
  <path d="M 422 375 L 424 375" shape-rendering="auto"/>
  <path d="M 423 374 L 423 374 A 3.00 3.00 18.43 0 0 424 375" shape-rendering="auto"/>
  <path d="M 424 376 L 423 377" shape-rendering="auto"/>
  <path d="M 423 377 L 424 378" shape-rendering="auto"/>
  <path d="M 424 378 L 425 377" shape-rendering="auto"/>
  <path d="M 424 376 L 424 376 A 3.00 3.00 37.87 0 0 426 377" shape-rendering="auto"/>
  <path d="M 426 377 L 426 379" shape-rendering="auto"/>
  <path d="M 426 379 L 427 379" shape-rendering="auto"/>
  <path d="M 427 379 L 427 377" shape-rendering="auto"/>
  <path d="M 427 377 L 427 377 A 3.00 3.00 26.57 0 0 428 376" shape-rendering="auto"/>
  <path d="M 428 377 L 430 378" shape-rendering="auto"/>
  <path d="M 430 378 L 431 377" shape-rendering="auto"/>
  <path d="M 431 377 L 429 376" shape-rendering="auto"/>
  <path d="M 429 375 L 429 375 A 3.00 3.00 26.57 0 0 429 374" shape-rendering="auto"/>
  <path d="M 427 366 L 430 363" shape-rendering="auto"/>
  <path d="M 430 363 L 428 361" shape-rendering="auto"/>
  <path d="M 428 361 L 426 364" shape-rendering="auto"/>
  <path d="M 427 368 L 427 368 A 6.00 6.00 27.35 1 0 427 365" shape-rendering="auto"/>
  <path d="M 425 364 L 425 364 A 6.00 6.00 21.50 1 0 423 363" shape-rendering="auto"/>
  <path d="M 423 363" shape-rendering="auto"/>
  <path d="M 423 363 L 423 359" shape-rendering="auto"/>
  <path d="M 423 359 L 421 359" shape-rendering="auto"/>
  <path d="M 421 359 L 421 363" shape-rendering="auto"/>
  <path d="M 421 363 L 421 363 A 6.00 6.00 29.20 1 0 418 364" shape-rendering="auto"/>
  <path d="M 419 364 L 416 361" shape-rendering="auto"/>
  <path d="M 416 361 L 414 363" shape-rendering="auto"/>
  <path d="M 414 363 L 417 366" shape-rendering="auto"/>
  <path d="M 417 365 L 417 365 A 6.00 6.00 29.20 0 0 416 368" shape-rendering="auto"/>
  <path d="M 416 368 L 412 368" shape-rendering="auto"/>
  <path d="M 412 368 L 412 370" shape-rendering="auto"/>
  <path d="M 412 370 L 416 370" shape-rendering="auto"/>
  <path d="M 416 370 L 416 370 A 6.00 6.00 21.50 0 0 417 372" shape-rendering="auto"/>
  <path d="M 417 373 L 414 376" shape-rendering="auto"/>
  <path d="M 414 376 L 416 377" shape-rendering="auto"/>
  <path d="M 416 377 L 417 376" shape-rendering="auto"/>
</g>
<g style="stroke-width:1;stroke-linecap:round;stroke-linejoin:bevel; fill:#FBF7DB;fill-opacity:1.00; stroke:#000000; stroke-opacity:1.00">
 <rect x="449" y="457" width="110" height="77" rx="5.00" shape-rendering="auto"  />
</g>
<g style="stroke-width:1;stroke-linecap:round;stroke-linejoin:bevel; fill:#000000;fill-opacity:1.00; stroke:#000000; stroke-opacity:0.00">
	<text x="456.00" y="489.00" textLength="96" style="font-family:Calibri; font-weight:0; font-style:normal; font-size:10px; fill:#000000;fill-opacity:1.00; stroke:#000000; stroke-opacity:0.00 stroke-width:0; white-space: pre;" xml:space="preserve" transform="rotate(-0.00 456.00 489.00)">4.6 Notify on connection</text>
	<text x="460.00" y="502.00" textLength="88" style="font-family:Calibri; font-weight:0; font-style:normal; font-size:10px; fill:#000000;fill-opacity:1.00; stroke:#000000; stroke-opacity:0.00 stroke-width:0; white-space: pre;" xml:space="preserve" transform="rotate(-0.00 460.00 502.00)">power envelop limit to</text>
	<text x="472.00" y="515.00" textLength="63" style="font-family:Calibri; font-weight:0; font-style:normal; font-size:10px; fill:#000000;fill-opacity:1.00; stroke:#000000; stroke-opacity:0.00 stroke-width:0; white-space: pre;" xml:space="preserve" transform="rotate(-0.00 472.00 515.00)">individual DERs,</text>
	<text x="469.00" y="528.00" textLength="69" style="font-family:Calibri; font-weight:0; font-style:normal; font-size:10px; fill:#000000;fill-opacity:1.00; stroke:#000000; stroke-opacity:0.00 stroke-width:0; white-space: pre;" xml:space="preserve" transform="rotate(-0.00 469.00 528.00)">Controllable Units</text>
</g>
<g style="stroke-width:1;stroke-linecap:round;stroke-linejoin:bevel; fill:#000000;fill-opacity:1.00; stroke:#FBF7DB; stroke-opacity:1.00">
  <path d="M 451 459 L 467 459 L 467 473 L 451 473 L 451 459 Z" shape-rendering="auto"/>
</g>
<g style="stroke-width:2;stroke-linecap:round;stroke-linejoin:bevel; fill:#000000;fill-opacity:0.00; stroke:#FBF7DB; stroke-opacity:1.00">
  <path d="M 451 459 L 459 467" shape-rendering="auto"/>
  <path d="M 459 467 L 467 459" shape-rendering="auto"/>
</g>
<g style="stroke-width:1;stroke-linecap:round;stroke-linejoin:bevel; fill:#FBF7DB;fill-opacity:1.00; stroke:#000000; stroke-opacity:1.00">
 <rect x="268" y="134" width="110" height="60" rx="5.00" shape-rendering="auto"  />
</g>
<g style="stroke-width:1;stroke-linecap:round;stroke-linejoin:bevel; fill:#000000;fill-opacity:1.00; stroke:#000000; stroke-opacity:0.00">
	<text x="283.00" y="166.00" textLength="80" style="font-family:Calibri; font-weight:0; font-style:normal; font-size:10px; fill:#000000;fill-opacity:1.00; stroke:#000000; stroke-opacity:0.00 stroke-width:0; white-space: pre;" xml:space="preserve" transform="rotate(-0.00 283.00 166.00)">4.3 Activate Flexible</text>
	<text x="277.00" y="179.00" textLength="91" style="font-family:Calibri; font-weight:0; font-style:normal; font-size:10px; fill:#000000;fill-opacity:1.00; stroke:#000000; stroke-opacity:0.00 stroke-width:0; white-space: pre;" xml:space="preserve" transform="rotate(-0.00 277.00 179.00)">Connection Agreement</text>
</g>
<g style="stroke-width:1;stroke-linecap:round;stroke-linejoin:bevel; fill:#000000;fill-opacity:0.00; stroke:#000000; stroke-opacity:1.00">
  <path d="M 290 151 L 294 151" shape-rendering="auto"/>
  <path d="M 294 151 L 294 149" shape-rendering="auto"/>
  <path d="M 294 149 L 290 149" shape-rendering="auto"/>
  <path d="M 289 149 L 289 149 A 6.00 6.00 27.35 1 0 289 146" shape-rendering="auto"/>
  <path d="M 289 147 L 292 144" shape-rendering="auto"/>
  <path d="M 292 144 L 290 143" shape-rendering="auto"/>
  <path d="M 290 143 L 288 145" shape-rendering="auto"/>
  <path d="M 287 145 L 287 145 A 6.00 6.00 21.50 1 0 285 144" shape-rendering="auto"/>
  <path d="M 285 144" shape-rendering="auto"/>
  <path d="M 285 144 L 285 140" shape-rendering="auto"/>
  <path d="M 285 140 L 283 140" shape-rendering="auto"/>
  <path d="M 283 140 L 283 144" shape-rendering="auto"/>
  <path d="M 283 144 L 283 144 A 6.00 6.00 29.20 1 0 280 145" shape-rendering="auto"/>
  <path d="M 281 145 L 278 143" shape-rendering="auto"/>
  <path d="M 278 143 L 276 144" shape-rendering="auto"/>
  <path d="M 276 144 L 279 147" shape-rendering="auto"/>
  <path d="M 279 147 L 279 147 A 6.00 6.00 21.50 0 0 278 149" shape-rendering="auto"/>
  <path d="M 278 149 L 274 149" shape-rendering="auto"/>
  <path d="M 274 149 L 274 151" shape-rendering="auto"/>
  <path d="M 274 151 L 278 151" shape-rendering="auto"/>
  <path d="M 278 151 L 278 151 A 6.00 6.00 21.50 0 0 279 153" shape-rendering="auto"/>
  <path d="M 279 154 L 276 157" shape-rendering="auto"/>
  <path d="M 276 157 L 278 158" shape-rendering="auto"/>
  <path d="M 278 158 L 281 155" shape-rendering="auto"/>
  <path d="M 280 155 L 280 155 A 6.00 6.00 29.20 0 0 283 156" shape-rendering="auto"/>
  <path d="M 283 156 L 283 160" shape-rendering="auto"/>
  <path d="M 283 160 L 285 160" shape-rendering="auto"/>
  <path d="M 285 160 L 285 156" shape-rendering="auto"/>
  <path d="M 285 156 L 285 156 A 6.00 6.00 21.50 0 0 287 155" shape-rendering="auto"/>
  <path d="M 287 155 L 290 158" shape-rendering="auto"/>
  <path d="M 290 158 L 292 157" shape-rendering="auto"/>
  <path d="M 292 157 L 289 154" shape-rendering="auto"/>
  <path d="M 289 153 L 289 153 A 6.00 6.00 19.65 0 0 289 151" shape-rendering="auto"/>
  <path d="M 287 151 L 289 151" shape-rendering="auto"/>
  <path d="M 289 151 L 289 150" shape-rendering="auto"/>
  <path d="M 289 150 L 287 150" shape-rendering="auto"/>
  <path d="M 286 149 L 286 149 A 3.00 3.00 18.43 1 0 286 148" shape-rendering="auto"/>
  <path d="M 286 148 L 288 147" shape-rendering="auto"/>
  <path d="M 288 147 L 287 146" shape-rendering="auto"/>
  <path d="M 287 146 L 285 148" shape-rendering="auto"/>
  <path d="M 285 147 L 285 147 A 3.00 3.00 18.43 1 0 284 147" shape-rendering="auto"/>
  <path d="M 284 147" shape-rendering="auto"/>
  <path d="M 284 147 L 284 145" shape-rendering="auto"/>
  <path d="M 284 145 L 283 145" shape-rendering="auto"/>
  <path d="M 283 145 L 283 147" shape-rendering="auto"/>
  <path d="M 283 147 L 283 147 A 3.00 3.00 26.57 1 0 281 147" shape-rendering="auto"/>
  <path d="M 282 148 L 281 146" shape-rendering="auto"/>
  <path d="M 281 146 L 280 147" shape-rendering="auto"/>
  <path d="M 280 147 L 281 149" shape-rendering="auto"/>
  <path d="M 281 148 L 281 148 A 3.00 3.00 19.65 0 0 280 149" shape-rendering="auto"/>
  <path d="M 281 150 L 279 150" shape-rendering="auto"/>
  <path d="M 279 150 L 279 151" shape-rendering="auto"/>
  <path d="M 279 151 L 281 151" shape-rendering="auto"/>
  <path d="M 280 150 L 280 150 A 3.00 3.00 18.43 0 0 281 151" shape-rendering="auto"/>
  <path d="M 281 152 L 280 153" shape-rendering="auto"/>
  <path d="M 280 153 L 281 154" shape-rendering="auto"/>
  <path d="M 281 154 L 282 153" shape-rendering="auto"/>
  <path d="M 281 152 L 281 152 A 3.00 3.00 37.87 0 0 283 153" shape-rendering="auto"/>
  <path d="M 283 153 L 283 155" shape-rendering="auto"/>
  <path d="M 283 155 L 284 155" shape-rendering="auto"/>
  <path d="M 284 155 L 284 153" shape-rendering="auto"/>
  <path d="M 284 153 L 284 153 A 3.00 3.00 26.57 0 0 285 152" shape-rendering="auto"/>
  <path d="M 285 153 L 287 154" shape-rendering="auto"/>
  <path d="M 287 154 L 288 153" shape-rendering="auto"/>
  <path d="M 288 153 L 286 152" shape-rendering="auto"/>
  <path d="M 286 151 L 286 151 A 3.00 3.00 26.57 0 0 286 150" shape-rendering="auto"/>
  <path d="M 284 142 L 287 139" shape-rendering="auto"/>
  <path d="M 287 139 L 285 137" shape-rendering="auto"/>
  <path d="M 285 137 L 283 140" shape-rendering="auto"/>
  <path d="M 284 144 L 284 144 A 6.00 6.00 27.35 1 0 284 141" shape-rendering="auto"/>
  <path d="M 282 140 L 282 140 A 6.00 6.00 21.50 1 0 280 139" shape-rendering="auto"/>
  <path d="M 280 139" shape-rendering="auto"/>
  <path d="M 280 139 L 280 135" shape-rendering="auto"/>
  <path d="M 280 135 L 278 135" shape-rendering="auto"/>
  <path d="M 278 135 L 278 139" shape-rendering="auto"/>
  <path d="M 278 139 L 278 139 A 6.00 6.00 29.20 1 0 275 140" shape-rendering="auto"/>
  <path d="M 276 140 L 273 137" shape-rendering="auto"/>
  <path d="M 273 137 L 271 139" shape-rendering="auto"/>
  <path d="M 271 139 L 274 142" shape-rendering="auto"/>
  <path d="M 274 141 L 274 141 A 6.00 6.00 29.20 0 0 273 144" shape-rendering="auto"/>
  <path d="M 273 144 L 269 144" shape-rendering="auto"/>
  <path d="M 269 144 L 269 146" shape-rendering="auto"/>
  <path d="M 269 146 L 273 146" shape-rendering="auto"/>
  <path d="M 273 146 L 273 146 A 6.00 6.00 21.50 0 0 274 148" shape-rendering="auto"/>
  <path d="M 274 149 L 271 152" shape-rendering="auto"/>
  <path d="M 271 152 L 273 153" shape-rendering="auto"/>
  <path d="M 273 153 L 274 152" shape-rendering="auto"/>
  <path d="M 323 194 L 323 221" shape-rendering="auto"/>
</g>
<g style="stroke-width:1;stroke-linecap:round;stroke-linejoin:bevel; fill:#000000;fill-opacity:1.00; stroke:#000000; stroke-opacity:1.00">
  <path d="M 323 221 L 329 205 L 317 205 Z" shape-rendering="auto"/>
</g>
<g style="stroke-width:1;stroke-linecap:round;stroke-linejoin:bevel; fill:#000000;fill-opacity:0.00; stroke:#000000; stroke-opacity:1.00">
  <path d="M 559 490 L 587 490" shape-rendering="auto"/>
</g>
<g style="stroke-width:1;stroke-linecap:round;stroke-linejoin:bevel; fill:#000000;fill-opacity:1.00; stroke:#000000; stroke-opacity:1.00">
  <path d="M 587 490 L 571 484 L 571 496 Z" shape-rendering="auto"/>
</g>
<g style="stroke-width:1;stroke-linecap:square;stroke-linejoin:round; fill:#000000;fill-opacity:0.00; stroke:#000000; stroke-opacity:1.00" stroke-dasharray="6,3">
  <path d="M 323 281 L 323 358" shape-rendering="auto"/>
</g>
<g style="stroke-width:1;stroke-linecap:round;stroke-linejoin:bevel; fill:#F7DDB4;fill-opacity:1.00; stroke:#000000; stroke-opacity:1.00">
  <path d="M 317 287 C 317 284 320 281 323 281 326 281 329 284 329 287 329 290 326 293 323 293 320 293 317 290 317 287 Z" shape-rendering="auto"/>
  <path d="M 323 358 L 329 342 L 317 342 L 323 358 Z" shape-rendering="auto"/>
</g>
<g style="stroke-width:1;stroke-linecap:round;stroke-linejoin:bevel; fill:#000000;fill-opacity:0.00; stroke:#000000; stroke-opacity:1.00">
  <path d="M 233 169 L 268 169" shape-rendering="auto"/>
</g>
<g style="stroke-width:1;stroke-linecap:round;stroke-linejoin:bevel; fill:#000000;fill-opacity:1.00; stroke:#000000; stroke-opacity:1.00">
  <path d="M 268 169 L 252 163 L 252 175 Z" shape-rendering="auto"/>
</g>
<g style="stroke-width:1;stroke-linecap:round;stroke-linejoin:bevel; fill:#000000;fill-opacity:0.00; stroke:#000000; stroke-opacity:1.00">
  <path d="M 178 116 L 178 148" shape-rendering="auto"/>
</g>
<g style="stroke-width:1;stroke-linecap:round;stroke-linejoin:bevel; fill:#000000;fill-opacity:1.00; stroke:#000000; stroke-opacity:1.00">
  <path d="M 178 148 L 184 132 L 172 132 Z" shape-rendering="auto"/>
</g>
<g style="stroke-width:1;stroke-linecap:round;stroke-linejoin:bevel; fill:#000000;fill-opacity:0.00; stroke:#000000; stroke-opacity:1.00">
  <path d="M 96 92 L 123 92" shape-rendering="auto"/>
</g>
<g style="stroke-width:1;stroke-linecap:round;stroke-linejoin:bevel; fill:#000000;fill-opacity:1.00; stroke:#000000; stroke-opacity:1.00">
  <path d="M 123 92 L 107 86 L 107 98 Z" shape-rendering="auto"/>
</g>
<g style="stroke-width:1;stroke-linecap:round;stroke-linejoin:bevel; fill:#000000;fill-opacity:0.00; stroke:#000000; stroke-opacity:1.00">
  <path d="M 379 381 L 411 381" shape-rendering="auto"/>
</g>
<g style="stroke-width:1;stroke-linecap:round;stroke-linejoin:bevel; fill:#000000;fill-opacity:1.00; stroke:#000000; stroke-opacity:1.00">
  <path d="M 411 381 L 395 375 L 395 387 Z" shape-rendering="auto"/>
</g>
<g style="stroke-width:1;stroke-linecap:square;stroke-linejoin:round; fill:#000000;fill-opacity:0.00; stroke:#000000; stroke-opacity:1.00" stroke-dasharray="6,3">
  <path d="M 653 458 L 653 289" shape-rendering="auto"/>
</g>
<g style="stroke-width:1;stroke-linecap:round;stroke-linejoin:bevel; fill:#F7DDB4;fill-opacity:1.00; stroke:#000000; stroke-opacity:1.00">
  <path d="M 659 452 C 659 449 656 446 653 446 650 446 647 449 647 452 647 455 650 458 653 458 656 458 659 455 659 452 Z" shape-rendering="auto"/>
  <path d="M 653 289 L 647 305 L 659 305 L 653 289 Z" shape-rendering="auto"/>
</g>
<g style="stroke-width:1;stroke-linecap:round;stroke-linejoin:bevel; fill:#000000;fill-opacity:0.00; stroke:#000000; stroke-opacity:1.00">
  <path d="M 491 430 L 491 457" shape-rendering="auto"/>
</g>
<g style="stroke-width:1;stroke-linecap:round;stroke-linejoin:bevel; fill:#000000;fill-opacity:1.00; stroke:#000000; stroke-opacity:1.00">
  <path d="M 491 457 L 497 441 L 485 441 Z" shape-rendering="auto"/>
</g>
<g style="stroke-width:1;stroke-linecap:square;stroke-linejoin:round; fill:#000000;fill-opacity:0.00; stroke:#000000; stroke-opacity:1.00" stroke-dasharray="6,3">
  <path d="M 465 534 L 465 599" shape-rendering="auto"/>
</g>
<g style="stroke-width:1;stroke-linecap:round;stroke-linejoin:bevel; fill:#F7DDB4;fill-opacity:1.00; stroke:#000000; stroke-opacity:1.00">
  <path d="M 459 540 C 459 537 462 534 465 534 468 534 471 537 471 540 471 543 468 546 465 546 462 546 459 543 459 540 Z" shape-rendering="auto"/>
  <path d="M 465 599 L 471 583 L 459 583 L 465 599 Z" shape-rendering="auto"/>
</g>
</svg>
